<svg width="current" height="current" viewBox="0 0 62 62" fill="none" xmlns="http://www.w3.org/2000/svg">
<path d="M46.295 38.5007V22.0439C46.295 13.3684 39.2619 6.33691 30.588 6.33691C21.9141 6.33691 14.881 13.3701 14.881 22.0439V38.5007C12.7482 38.5156 11.0078 40.2644 11.0078 42.4021V44.3254C11.0078 46.4614 12.7482 48.2118 14.881 48.2268V48.2584H46.2967V48.2268C48.4294 48.2118 50.1698 46.4631 50.1698 44.3254V42.4021C50.1698 40.266 48.4294 38.5156 46.2967 38.5007H46.295Z" fill="#C4CAD1"/>
<path d="M35.6304 49.9648C35.6304 52.7492 33.373 55.0066 30.5886 55.0066C27.8043 55.0066 25.5469 52.7492 25.5469 49.9648H35.6304Z" fill="#C4CAD1"/>
</svg>
