<svg width="current" height="current" viewBox="0 0 24 24" fill="none" xmlns="http://www.w3.org/2000/svg">
<path d="M18.0797 15.0304V8.6601C18.0797 5.30183 15.3572 2.57996 11.9996 2.57996C8.64197 2.57996 5.91945 5.30247 5.91945 8.6601V15.0304C5.09388 15.0362 4.42017 15.7132 4.42017 16.5407V17.2852C4.42017 18.112 5.09388 18.7896 5.91945 18.7954V18.8076H18.0804V18.7954C18.906 18.7896 19.5797 18.1127 19.5797 17.2852V16.5407C19.5797 15.7138 18.906 15.0362 18.0804 15.0304H18.0797Z" fill="#C4CAD1"/>
<path d="M13.9514 19.4684C13.9514 20.5462 13.0776 21.42 11.9997 21.42C10.9219 21.42 10.0481 20.5462 10.0481 19.4684H13.9514Z" fill="#C4CAD1"/>
<path d="M19.4305 3.86107C20.2206 3.86107 20.8611 3.2206 20.8611 2.43053C20.8611 1.64047 20.2206 1 19.4305 1C18.6405 1 18 1.64047 18 2.43053C18 3.2206 18.6405 3.86107 19.4305 3.86107Z" fill="#E7918E"/>
</svg>
