<svg width="26" height="26" viewBox="0 0 26 26" fill="none" xmlns="http://www.w3.org/2000/svg">
<path d="M4.78158 15.8013L5.20354 15.3793C5.33969 15.2432 5.41634 15.0585 5.41634 14.866V10.8333C5.41634 6.64518 8.81152 3.25001 12.9997 3.25C17.1878 3.24999 20.583 6.64517 20.583 10.8333V14.8659C20.583 15.0585 20.6595 15.2432 20.7957 15.3793L21.2176 15.8013C21.3465 15.9302 21.4119 15.9955 21.4633 16.0672C21.5606 16.2027 21.6245 16.3588 21.6515 16.5235C21.6658 16.6106 21.666 16.702 21.666 16.8848C21.666 17.3025 21.666 17.5113 21.6092 17.6798C21.5011 18.0003 21.2503 18.252 20.9298 18.3601C20.762 18.4167 20.5538 18.4167 20.1394 18.4167H16.2497V19.5C16.2497 21.2949 14.7946 22.75 12.9997 22.75C11.2047 22.75 9.74967 21.2949 9.74967 19.5V18.4167H5.86003C5.44561 18.4167 5.2382 18.4167 5.07039 18.3601C4.74987 18.252 4.49795 18.0002 4.38983 17.6797C4.33301 17.5113 4.33301 17.3025 4.33301 16.8848C4.33301 16.702 4.33301 16.6106 4.34731 16.5235C4.37433 16.3588 4.4388 16.2027 4.53613 16.0672C4.58764 15.9955 4.65233 15.9305 4.78158 15.8013Z" fill="#C3CAD2"/>
<path d="M16.2497 18.4167V19.5C16.2497 21.2949 14.7946 22.75 12.9997 22.75C11.2047 22.75 9.74967 21.2949 9.74967 19.5V18.4167M16.2497 18.4167H9.74967M16.2497 18.4167H20.1394C20.5538 18.4167 20.762 18.4167 20.9298 18.3601C21.2503 18.252 21.5011 18.0003 21.6092 17.6798C21.666 17.5113 21.666 17.3025 21.666 16.8848C21.666 16.702 21.6658 16.6106 21.6515 16.5235C21.6245 16.3588 21.5606 16.2027 21.4633 16.0672C21.4119 15.9955 21.3465 15.9302 21.2176 15.8013L20.7957 15.3793C20.6595 15.2432 20.583 15.0585 20.583 14.8659V10.8333C20.583 6.64517 17.1878 3.24999 12.9997 3.25C8.81152 3.25001 5.41634 6.64518 5.41634 10.8333V14.866C5.41634 15.0585 5.33969 15.2432 5.20354 15.3793L4.78158 15.8013C4.65233 15.9305 4.58764 15.9955 4.53613 16.0672C4.4388 16.2027 4.37433 16.3588 4.34731 16.5235C4.33301 16.6106 4.33301 16.702 4.33301 16.8848C4.33301 17.3025 4.33301 17.5113 4.38983 17.6797C4.49795 18.0002 4.74987 18.252 5.07039 18.3601C5.2382 18.4167 5.44561 18.4167 5.86003 18.4167H9.74967" stroke="#C3CAD2" stroke-width="2" stroke-linecap="round" stroke-linejoin="round"/>
</svg>
