<svg width="24" height="24" viewBox="0 0 24 24" fill="none" xmlns="http://www.w3.org/2000/svg">
<path d="M8.90638 6.07221C8.90638 5.77223 8.6632 5.52905 8.36322 5.52905C8.06325 5.52905 7.82007 5.77223 7.82007 6.07221V7.72362C7.82007 8.0236 8.06325 8.26678 8.36322 8.26678C8.6632 8.26678 8.90638 8.0236 8.90638 7.72362V6.07221Z" fill="#99C0F7"/>
<path d="M16.1061 6.07221C16.1061 5.77223 15.8629 5.52905 15.5629 5.52905C15.263 5.52905 15.0198 5.77223 15.0198 6.07221V7.72362C15.0198 8.0236 15.263 8.26678 15.5629 8.26678C15.8629 8.26678 16.1061 8.0236 16.1061 7.72362V6.07221Z" fill="#99C0F7"/>
<path d="M16.9968 8.26685H6.92919C6.29372 8.26685 5.77856 8.782 5.77856 9.41747V17.9162C5.77856 18.5517 6.29372 19.0669 6.92919 19.0669H16.9968C17.6322 19.0669 18.1474 18.5517 18.1474 17.9162V9.41747C18.1474 8.782 17.6322 8.26685 16.9968 8.26685Z" fill="#DDEBFD"/>
<path d="M6.87219 6.89905H17.0538C17.6573 6.89905 18.1474 7.45124 18.1474 8.13118V10.7709H5.77856V8.13118C5.77856 7.45124 6.26868 6.89905 6.87219 6.89905Z" fill="#BDD8FC"/>
<path d="M15.1058 15.3459C15.6339 15.3459 16.062 14.8636 16.062 14.2687C16.062 13.6737 15.6339 13.1914 15.1058 13.1914C14.5777 13.1914 14.1497 13.6737 14.1497 14.2687C14.1497 14.8636 14.5777 15.3459 15.1058 15.3459Z" fill="#BDD8FC"/>
<path d="M11.9769 15.3459C12.505 15.3459 12.9331 14.8636 12.9331 14.2687C12.9331 13.6737 12.505 13.1914 11.9769 13.1914C11.4488 13.1914 11.0208 13.6737 11.0208 14.2687C11.0208 14.8636 11.4488 15.3459 11.9769 15.3459Z" fill="#BDD8FC"/>
<path d="M8.84776 15.3459C9.37584 15.3459 9.80392 14.8636 9.80392 14.2687C9.80392 13.6737 9.37584 13.1914 8.84776 13.1914C8.31969 13.1914 7.8916 13.6737 7.8916 14.2687C7.8916 14.8636 8.31969 15.3459 8.84776 15.3459Z" fill="#BDD8FC"/>
</svg>
