<svg width="current" height="current" viewBox="0 0 24 24" fill="none" xmlns="http://www.w3.org/2000/svg">
<path d="M8.44055 5.59747C8.44055 5.2675 8.17305 5 7.84308 5C7.5131 5 7.24561 5.2675 7.24561 5.59747V7.41403C7.24561 7.744 7.5131 8.0115 7.84308 8.0115C8.17305 8.0115 8.44055 7.744 8.44055 7.41403V5.59747Z" fill="#99C0F7"/>
<path d="M16.3602 5.59747C16.3602 5.2675 16.0927 5 15.7628 5C15.4328 5 15.1653 5.2675 15.1653 5.59747V7.41403C15.1653 7.744 15.4328 8.0115 15.7628 8.0115C16.0927 8.0115 16.3602 7.744 16.3602 7.41403V5.59747Z" fill="#99C0F7"/>
<path d="M17.34 8.0116H6.26569C5.56667 8.0116 5 8.57826 5 9.27728V18.6259C5 19.325 5.56667 19.8916 6.26569 19.8916H17.34C18.0391 19.8916 18.6057 19.325 18.6057 18.6259V9.27728C18.6057 8.57826 18.0391 8.0116 17.34 8.0116Z" fill="#DDEBFD"/>
<path d="M6.20299 6.50696H17.4027C18.0666 6.50696 18.6057 7.11437 18.6057 7.86231V10.766H5V7.86231C5 7.11437 5.53913 6.50696 6.20299 6.50696Z" fill="#BDD8FC"/>
<path d="M15.26 15.7986C15.8409 15.7986 16.3118 15.268 16.3118 14.6136C16.3118 13.9591 15.8409 13.4286 15.26 13.4286C14.6791 13.4286 14.2083 13.9591 14.2083 14.6136C14.2083 15.268 14.6791 15.7986 15.26 15.7986Z" fill="#BDD8FC"/>
<path d="M11.8181 15.7986C12.399 15.7986 12.8699 15.268 12.8699 14.6136C12.8699 13.9591 12.399 13.4286 11.8181 13.4286C11.2373 13.4286 10.7664 13.9591 10.7664 14.6136C10.7664 15.268 11.2373 15.7986 11.8181 15.7986Z" fill="#BDD8FC"/>
<path d="M8.376 15.7986C8.95688 15.7986 9.42777 15.268 9.42777 14.6136C9.42777 13.9591 8.95688 13.4286 8.376 13.4286C7.79512 13.4286 7.32422 13.9591 7.32422 14.6136C7.32422 15.268 7.79512 15.7986 8.376 15.7986Z" fill="#BDD8FC"/>
</svg>
