<svg width="24" height="24" viewBox="0 0 24 24" fill="none" xmlns="http://www.w3.org/2000/svg">
<path d="M17.7815 7.41577H7.98892C7.31682 7.41577 6.77197 7.96062 6.77197 8.63272V18.4253C6.77197 19.0974 7.31682 19.6423 7.98892 19.6423H17.7815C18.4536 19.6423 18.9985 19.0974 18.9985 18.4253V8.63272C18.9985 7.96062 18.4536 7.41577 17.7815 7.41577Z" fill="#99C0F7"/>
<path d="M16.2256 5.63171H6.43301C5.76091 5.63171 5.21606 6.17656 5.21606 6.84866V16.6413C5.21606 17.3134 5.76091 17.8582 6.43301 17.8582H16.2256C16.8977 17.8582 17.4425 17.3134 17.4425 16.6413V6.84866C17.4425 6.17656 16.8977 5.63171 16.2256 5.63171Z" fill="#BDD8FC"/>
<path d="M14.4016 3.83459H4.60904C3.93694 3.83459 3.39209 4.37944 3.39209 5.05154V14.8441C3.39209 15.5162 3.93694 16.0611 4.60904 16.0611H14.4016C15.0737 16.0611 15.6186 15.5162 15.6186 14.8441V5.05154C15.6186 4.37944 15.0737 3.83459 14.4016 3.83459Z" fill="#DDEBFD"/>
<path d="M8.08908 5.35291H5.15565C4.95427 5.35291 4.79102 5.51616 4.79102 5.71754V8.65097C4.79102 8.85235 4.95427 9.0156 5.15565 9.0156H8.08908C8.29046 9.0156 8.45371 8.85235 8.45371 8.65097V5.71754C8.45371 5.51616 8.29046 5.35291 8.08908 5.35291Z" fill="#AECFFA"/>
<path d="M9.88794 6.45557H13.9934" stroke="#85B5F7" stroke-width="0.461538" stroke-miterlimit="10" stroke-linecap="round"/>
<path d="M9.88794 8.38342H13.9934" stroke="#85B5F7" stroke-width="0.461538" stroke-miterlimit="10" stroke-linecap="round"/>
<path d="M5.20044 10.3113H13.9934" stroke="#85B5F7" stroke-width="0.461538" stroke-miterlimit="10" stroke-linecap="round"/>
<path d="M5.20044 12.2395H13.9934" stroke="#85B5F7" stroke-width="0.461538" stroke-miterlimit="10" stroke-linecap="round"/>
<path d="M5.20044 14.1674H11.8341" stroke="#85B5F7" stroke-width="0.461538" stroke-miterlimit="10" stroke-linecap="round"/>
</svg>
