<svg width="current" height="current" viewBox="0 0 24 24" fill="none" xmlns="http://www.w3.org/2000/svg">
<path d="M17.0871 8.00818H8.86135C8.29678 8.00818 7.83911 8.46585 7.83911 9.03041V17.2562C7.83911 17.8208 8.29678 18.2784 8.86135 18.2784H17.0871C17.6517 18.2784 18.1094 17.8208 18.1094 17.2562V9.03041C18.1094 8.46585 17.6517 8.00818 17.0871 8.00818Z" fill="#99C0F7"/>
<path d="M15.78 6.50952H7.55422C6.98965 6.50952 6.53198 6.96719 6.53198 7.53176V15.7575C6.53198 16.3221 6.98965 16.7798 7.55422 16.7798H15.78C16.3446 16.7798 16.8022 16.3221 16.8022 15.7575V7.53176C16.8022 6.96719 16.3446 6.50952 15.78 6.50952Z" fill="#BDD8FC"/>
<path d="M14.248 5H6.02224C5.45767 5 5 5.45767 5 6.02224V14.248C5 14.8126 5.45767 15.2702 6.02224 15.2702H14.248C14.8126 15.2702 15.2702 14.8126 15.2702 14.248V6.02224C15.2702 5.45767 14.8126 5 14.248 5Z" fill="#DDEBFD"/>
<path d="M8.94542 6.27539H6.48134C6.31218 6.27539 6.17505 6.41252 6.17505 6.58168V9.04576C6.17505 9.21492 6.31218 9.35206 6.48134 9.35206H8.94542C9.11458 9.35206 9.25171 9.21492 9.25171 9.04576V6.58168C9.25171 6.41252 9.11458 6.27539 8.94542 6.27539Z" fill="#AECFFA"/>
<path d="M10.4565 7.20154H13.9052" stroke="#85B5F7" stroke-width="0.387692" stroke-miterlimit="10" stroke-linecap="round"/>
<path d="M10.4565 8.82104H13.9052" stroke="#85B5F7" stroke-width="0.387692" stroke-miterlimit="10" stroke-linecap="round"/>
<path d="M6.51904 10.4403H13.9051" stroke="#85B5F7" stroke-width="0.387692" stroke-miterlimit="10" stroke-linecap="round"/>
<path d="M6.51904 12.0601H13.9051" stroke="#85B5F7" stroke-width="0.387692" stroke-miterlimit="10" stroke-linecap="round"/>
<path d="M6.51904 13.6794H12.0913" stroke="#85B5F7" stroke-width="0.387692" stroke-miterlimit="10" stroke-linecap="round"/>
</svg>
