<svg width="current" height="current" viewBox="0 0 24 24" fill="none" xmlns="http://www.w3.org/2000/svg">
<path d="M18.7726 12.2516H16.8716L16.1457 11.5257C16.1133 11.4933 16.0584 11.5087 16.0476 11.5532L15.2736 14.713C15.2591 14.772 15.176 14.7729 15.16 14.7143L13.9144 10.0925C13.8999 10.0382 13.8246 10.0339 13.8036 10.0857L12.8834 12.3623C12.8744 12.3846 12.8525 12.3991 12.8284 12.3991L11.1749 12.3821C11.1595 12.3821 11.145 12.3759 11.1342 12.3648L10.4253 11.6559C10.3929 11.6235 10.3379 11.639 10.3271 11.6834L9.55315 14.8433C9.53864 14.9022 9.45562 14.9031 9.43958 14.8445L8.19402 10.2224C8.17952 10.1681 8.10422 10.1638 8.08323 10.2156L7.15369 12.5058H5.448" stroke="#E7918E" stroke-width="0.42329" stroke-miterlimit="10"/>
<path d="M18.0285 7.26965H5.97136C5.56042 7.26965 5.22729 7.60278 5.22729 8.01372V15.9864C5.22729 16.3973 5.56042 16.7304 5.97136 16.7304H18.0285C18.4394 16.7304 18.7726 16.3973 18.7726 15.9864V8.01372C18.7726 7.60278 18.4394 7.26965 18.0285 7.26965Z" stroke="#D7DADF" stroke-width="0.846581" stroke-miterlimit="10"/>
</svg>
