<svg width="current" height="current" viewBox="0 0 24 24" fill="none" xmlns="http://www.w3.org/2000/svg">
<path d="M11.8138 19.6276C16.1292 19.6276 19.6276 16.1292 19.6276 11.8138C19.6276 7.49835 16.1292 4 11.8138 4C7.49835 4 4 7.49835 4 11.8138C4 16.1292 7.49835 19.6276 11.8138 19.6276Z" fill="#FDF4D0"/>
<path d="M11.8137 18.0808C15.2749 18.0808 18.0808 15.2749 18.0808 11.8137C18.0808 8.3525 15.2749 5.54663 11.8137 5.54663C8.3525 5.54663 5.54663 8.3525 5.54663 11.8137C5.54663 15.2749 8.3525 18.0808 11.8137 18.0808Z" fill="#FCEDB2"/>
<path d="M12.5092 8.0168L13.1371 9.9495H15.1692C15.8696 9.9495 16.1608 10.846 15.5943 11.2574L13.9502 12.4518L14.5781 14.3845C14.7946 15.0508 14.032 15.6047 13.4655 15.1929L11.8213 13.9985L10.1772 15.1929C9.61031 15.6047 8.84811 15.0508 9.06459 14.3845L9.69252 12.4518L8.04833 11.2574C7.48148 10.8456 7.77274 9.9495 8.47347 9.9495H10.5056L11.1335 8.0168C11.35 7.35052 12.2923 7.35052 12.5088 8.0168H12.5092Z" fill="#F9E38E"/>
</svg>
