<svg width="24" height="24" viewBox="0 0 24 24" fill="none" xmlns="http://www.w3.org/2000/svg">
<path d="M11.672 17.6178C14.7831 17.6178 17.3052 15.0957 17.3052 11.9846C17.3052 8.8735 14.7831 6.35144 11.672 6.35144C8.56088 6.35144 6.03882 8.8735 6.03882 11.9846C6.03882 15.0957 8.56088 17.6178 11.672 17.6178Z" fill="#FDF4D0"/>
<path d="M11.6721 18.4907C15.2653 18.4907 18.1782 15.5778 18.1782 11.9846C18.1782 8.39139 15.2653 5.47852 11.6721 5.47852C8.07889 5.47852 5.16602 8.39139 5.16602 11.9846C5.16602 15.5778 8.07889 18.4907 11.6721 18.4907Z" fill="#FCEDB2"/>
<path d="M12.1733 9.24734L12.626 10.6407H14.0911C14.596 10.6407 14.8059 11.287 14.3976 11.5836L13.2122 12.4447L13.6649 13.838C13.821 14.3183 13.2712 14.7177 12.8628 14.4208L11.6775 13.5597L10.4921 14.4208C10.0835 14.7177 9.53399 14.3183 9.69006 13.838L10.1428 12.4447L8.95741 11.5836C8.54875 11.2867 8.75873 10.6407 9.26391 10.6407H10.7289L11.1816 9.24734C11.3377 8.767 12.017 8.767 12.1731 9.24734H12.1733Z" fill="#F9E38E"/>
</svg>
