<svg width="24" height="24" viewBox="0 0 24 24" fill="none" xmlns="http://www.w3.org/2000/svg">
<path d="M9.54551 9.47452C9.726 6.62036 12.1814 4.437 15.5304 5.21666C19.48 6.13661 19.4951 11.0323 17.7765 13.4133C17.1216 14.3203 16.4196 15.0154 15.6961 16.7068C14.822 18.7498 12.3267 20.0003 10.4955 17.7305C9.32829 16.2839 9.39337 11.8838 9.54591 9.47452H9.54551Z" stroke="#AECFFA" stroke-width="1.078" stroke-miterlimit="10" stroke-linecap="round"/>
<path d="M6.00708 9.58335C6.00708 9.34592 5.81159 9.15344 5.57044 9.15344C5.32928 9.15344 5.13379 9.34592 5.13379 9.58335V13.526C5.13379 13.7635 5.32928 13.956 5.57044 13.956C5.81159 13.956 6.00708 13.7635 6.00708 13.526V9.58335Z" fill="#4B87E0"/>
<path d="M7.65064 8.72825C7.65064 8.49082 7.45514 8.29834 7.21399 8.29834C6.97284 8.29834 6.77734 8.49082 6.77734 8.72825V14.6386C6.77734 14.876 6.97284 15.0685 7.21399 15.0685C7.45514 15.0685 7.65064 14.876 7.65064 14.6386V8.72825Z" fill="#4B87E0"/>
<path d="M16.5557 9.57781C16.5557 9.57781 16.277 7.65735 14.3 7.65735C12.323 7.65735 11.3399 9.40058 11.639 12.8422" stroke="#AECFFA" stroke-width="1.078" stroke-miterlimit="10" stroke-linecap="round"/>
<path d="M11.8074 11.2546C11.8074 11.2546 14.6465 10.3693 14.3654 12.7762C14.0842 15.1832 13.1846 15.1553 13.1846 15.1553" stroke="#AECFFA" stroke-width="1.078" stroke-miterlimit="10" stroke-linecap="round"/>
</svg>
