<svg width="current" height="current" viewBox="0 0 24 24" fill="none" xmlns="http://www.w3.org/2000/svg">
<path d="M18.1828 8.75533H17.4555C16.4698 7.03154 14.3977 5.84375 12.0003 5.84375C9.60277 5.84375 7.53073 7.03154 6.54501 8.75533H5.81767C5.48909 8.75533 5.22266 9.02177 5.22266 9.35035V10.4867C5.22266 10.8153 5.48909 11.0817 5.81767 11.0817H18.1824C18.511 11.0817 18.7774 10.8153 18.7774 10.4867V9.35035C18.7774 9.02177 18.511 8.75533 18.1824 8.75533H18.1828Z" fill="#4B87E0"/>
<path d="M17.2857 11.3579H6.71492C5.89103 11.3579 5.22314 12.0258 5.22314 12.8497V14.2802C5.22314 14.2802 5.22314 14.282 5.22314 14.2829V17.5722C5.22314 17.8946 5.48467 18.1561 5.80698 18.1561H6.37294C6.69525 18.1561 6.95677 17.8946 6.95677 17.5722V15.7724H17.0434V17.5678C17.0434 17.8901 17.3049 18.1516 17.6272 18.1516H18.1932C18.5155 18.1516 18.777 17.8901 18.777 17.5678V12.8501C18.777 12.0262 18.1091 11.3584 17.2852 11.3584L17.2857 11.3579Z" fill="#AECFFA"/>
</svg>
