<svg width="current" height="current" viewBox="0 0 24 24" fill="none" xmlns="http://www.w3.org/2000/svg">
<path d="M12.6459 5.49573L13.8305 7.58044L16.1423 6.944C16.6981 6.79102 17.2087 7.30165 17.0558 7.85751L16.4193 10.1693L18.504 11.3539C19.0052 11.6387 19.0052 12.3613 18.504 12.6461L16.4193 13.8307L17.0558 16.1425C17.2087 16.6984 16.6981 17.209 16.1423 17.056L13.8305 16.4196L12.6459 18.5043C12.3611 19.0054 11.6384 19.0054 11.3536 18.5043L10.1691 16.4196L7.85727 17.056C7.3014 17.209 6.79078 16.6984 6.94375 16.1425L7.5802 13.8307L5.49548 12.6461C4.99434 12.3613 4.99434 11.6387 5.49548 11.3539L7.5802 10.1693L6.94375 7.85751C6.79078 7.30165 7.3014 6.79102 7.85727 6.944L10.1691 7.58044L11.3536 5.49573C11.6384 4.99459 12.3611 4.99459 12.6459 5.49573Z" fill="#FBE5B7"/>
<path d="M11.9947 15.3477C13.8597 15.3477 15.3717 13.8358 15.3717 11.9707C15.3717 10.1057 13.8597 8.59375 11.9947 8.59375C10.1296 8.59375 8.61768 10.1057 8.61768 11.9707C8.61768 13.8358 10.1296 15.3477 11.9947 15.3477Z" fill="#E8A675"/>
</svg>
