<svg width="current" height="current" viewBox="0 0 24 24" fill="none" xmlns="http://www.w3.org/2000/svg">
<path d="M7.59985 10.5074H7.60055L7.60614 10.5017L7.59985 10.5074Z" fill="#86CBD2"/>
<path d="M7.61588 10.4917L7.60474 10.5034L7.61588 10.4917Z" fill="#5299B6"/>
<path d="M17.9798 18.054H14.8137L18.0409 18.0561C18.4183 18.0561 18.7269 17.7474 18.7269 17.3701V17.3385C18.7091 17.7347 18.3806 18.0535 17.9803 18.0535L17.9798 18.054Z" fill="#5299B6"/>
<path d="M18.7285 16.9292C18.7285 15.8103 17.8444 14.8875 16.7398 14.8259C16.6283 14.8198 16.5183 14.7918 16.421 14.7368C16.3574 14.7006 16.2963 14.6548 16.2708 14.6013L13.6471 9.10487C13.6155 9.03867 13.5692 8.98112 13.5111 8.93681C13.4403 8.88232 13.3415 8.89149 13.2789 8.95515C13.1597 9.07686 12.9973 9.15885 12.8389 9.15885H11.8382C10.5615 9.15885 9.51697 8.11436 9.51697 6.83764V6.45722C9.51697 6.39509 9.52716 6.33551 9.54651 6.28C9.60253 6.11602 9.48591 5.94541 9.31276 5.94388C9.08105 5.94185 8.85035 6.02435 8.68026 6.18986L5.94043 8.90269C5.94399 8.90626 13.8533 16.8156 13.8533 16.8156C13.9119 16.8747 13.973 16.9531 14.1151 16.9531H18.726V17.3391C18.726 17.3279 18.7275 17.3172 18.7275 17.3055V16.9287L18.7285 16.9292Z" fill="#9EDDDD"/>
<path d="M14.1163 16.9531C13.9748 16.9531 13.9136 16.8747 13.8546 16.8156C13.8546 16.8156 5.94523 8.90627 5.94166 8.90271L5.933 8.91086L5.92944 8.91442L5.40235 9.44151C5.22819 9.61568 5.22819 9.90137 5.40235 10.0755L13.1997 17.8728C13.3 17.9757 13.4482 18.0541 13.5994 18.0541H14.6455L14.814 18.0552H17.9801C18.3804 18.0552 18.7088 17.7364 18.7267 17.3402V16.9541H14.1158L14.1163 16.9531Z" fill="#488796"/>
<path d="M15.85 13.7087L14.806 14.1243C14.6721 14.1778 14.5193 14.1115 14.4664 13.9781L14.4592 13.9608C14.4058 13.8269 14.472 13.6741 14.6054 13.6211L15.6122 13.2173L15.85 13.7092V13.7087Z" fill="#488796"/>
<path d="M15.2516 12.4974L14.2076 12.913C14.0737 12.9664 13.9209 12.9002 13.868 12.7668L13.8608 12.7495C13.8074 12.6156 13.8736 12.4628 14.007 12.4098L15.0138 12.006L15.2516 12.4979V12.4974Z" fill="#488796"/>
<path d="M14.6833 11.2763L13.6393 11.6919C13.5053 11.7454 13.3526 11.6792 13.2996 11.5457L13.2925 11.5284C13.239 11.3945 13.3052 11.2417 13.4386 11.1888L14.4454 10.7849L14.6833 11.2769V11.2763Z" fill="#488796"/>
</svg>
