<svg width="current" height="current" viewBox="0 0 24 24" fill="none" xmlns="http://www.w3.org/2000/svg">
<path d="M18.5865 16.1077H5.41347C5.2168 16.1077 5.05737 16.2671 5.05737 16.4638V16.8133C5.05737 17.0099 5.2168 17.1693 5.41347 17.1693H18.5865C18.7832 17.1693 18.9426 17.0099 18.9426 16.8133V16.4638C18.9426 16.2671 18.7832 16.1077 18.5865 16.1077Z" fill="#F5D5CB"/>
<path d="M18.3707 8.57782L16.4606 6.97807C16.1929 6.75402 15.7938 6.78909 15.5698 7.05688L12.0518 11.2574C11.9618 11.3651 11.9098 11.4996 11.9044 11.6395L11.8281 13.6696C11.8124 14.0822 12.1904 14.3991 12.5939 14.3117L14.5803 13.8813C14.7177 13.8516 14.8411 13.7769 14.931 13.6692L18.4491 9.46867C18.6731 9.20088 18.6381 8.80187 18.3703 8.57782H18.3707Z" fill="#E37B7B"/>
</svg>
