<svg width="19" height="20" viewBox="0 0 19 20" fill="none" xmlns="http://www.w3.org/2000/svg">
<path d="M16.904 16.8606L18.0495 16.535C18.5887 16.3818 18.9714 15.7812 18.9714 15.0883V10.4201C18.9714 9.72053 18.5814 9.11599 18.0354 8.96954L16.8828 8.66038C16.1451 8.46252 15.4499 9.16814 15.4512 10.1135L15.4583 15.4164C15.4596 16.367 16.1641 17.0709 16.904 16.8606Z" fill="#3E4C5F"/>
<path d="M2.06748 8.66432L0.921978 8.98987C0.382757 9.1431 0 9.74371 0 10.4366V15.1048C0 15.8044 0.390084 16.4089 0.936052 16.5554L2.08867 16.8645C2.82633 17.0624 3.52152 16.3568 3.52027 15.4114L3.51315 10.1085C3.51187 9.15788 2.80737 8.45404 2.06748 8.66432Z" fill="#3E4C5F"/>
<path d="M1.95215 16.5423V8.49843C1.95215 4.37428 5.32643 1 9.45058 1C13.5747 1 16.949 4.37428 16.949 8.49843V16.5423" stroke="#3E4C5F" stroke-width="1.06667" stroke-miterlimit="10"/>
<path d="M16.6541 15.8462C16.6541 17.4023 15.3927 18.6638 13.8366 18.6638H13.0186" stroke="#3E4C5F" stroke-width="0.533333" stroke-miterlimit="10"/>
<path d="M12.837 17.8003H11.6554C11.1786 17.8003 10.792 18.1869 10.792 18.6637C10.792 19.1406 11.1786 19.5272 11.6554 19.5272H12.837C13.3139 19.5272 13.7005 19.1406 13.7005 18.6637C13.7005 18.1869 13.3139 17.8003 12.837 17.8003Z" fill="#3E4C5F"/>
</svg>
