<svg width="16" height="20" viewBox="0 0 16 20" fill="none" xmlns="http://www.w3.org/2000/svg">
<path d="M13.6277 6.85202H13.5091V5.87726C13.5091 2.63138 10.8778 0 7.63187 0C4.38599 0 1.75461 2.63133 1.75461 5.87726V6.85202H1.63597C0.732485 6.85202 0 7.58444 0 8.48799V18.1598C0 19.0632 0.732485 19.7957 1.63597 19.7957H13.6277C14.5312 19.7957 15.2636 19.0633 15.2636 18.1598V8.48799C15.2636 7.5845 14.5313 6.85202 13.6277 6.85202ZM8.20657 13.3468V15.5343C8.20657 15.8126 7.97886 16.0403 7.70061 16.0403H7.56313C7.28483 16.0403 7.05718 15.8126 7.05718 15.5343V13.3468C6.57095 13.1274 6.2323 12.6388 6.2323 12.0707C6.2323 11.2978 6.85888 10.6711 7.63187 10.6711C8.40486 10.6711 9.03145 11.2977 9.03145 12.0707C9.03145 12.6388 8.6928 13.1274 8.20663 13.3468H8.20657ZM11.6175 6.85202H3.64629V6.25683C3.64629 4.05568 5.43066 2.27125 7.63187 2.27125C9.83303 2.27125 11.6175 4.05562 11.6175 6.25683V6.85202Z" fill="#F9E38E"/>
</svg>
