<svg width="18" height="18" viewBox="0 0 18 18" fill="none" xmlns="http://www.w3.org/2000/svg">
<path d="M12.6981 0.82666C10.9463 0.82666 9.42941 1.82201 8.6745 3.27645C7.91959 1.82201 6.40268 0.82666 4.65086 0.82666C2.14696 0.82666 0.117188 2.85648 0.117188 5.36033V14.4891C0.117188 15.8949 1.25689 17.0346 2.66276 17.0346H14.6864C16.0923 17.0346 17.232 15.8949 17.232 14.4891V5.36033C17.232 2.85644 15.2021 0.82666 12.6982 0.82666H12.6981Z" fill="#3E4C5F"/>
<path d="M8.67464 7.60075C9.3126 7.60075 9.82976 7.08359 9.82976 6.44564C9.82976 5.80769 9.3126 5.29053 8.67464 5.29053C8.03669 5.29053 7.51953 5.80769 7.51953 6.44564C7.51953 7.08359 8.03669 7.60075 8.67464 7.60075Z" fill="white"/>
<path d="M9.71919 9.81467C9.71919 9.23773 9.25148 8.77002 8.67454 8.77002C8.09759 8.77002 7.62988 9.23773 7.62988 9.81467V13.4869C7.62988 14.0638 8.09759 14.5315 8.67454 14.5315C9.25148 14.5315 9.71919 14.0638 9.71919 13.4869V9.81467Z" fill="white"/>
</svg>
