
<svg width="17" height="14" viewBox="0 0 17 14" fill="none" xmlns="http://www.w3.org/2000/svg">
<path d="M16.6104 5.72705H15.1127C14.8994 5.72705 14.7266 5.89993 14.7266 6.11319V7.83147C14.7266 8.04473 14.8994 8.21761 15.1127 8.21761H16.6104C16.8236 8.21761 16.9965 8.04473 16.9965 7.83147V6.11319C16.9965 5.89993 16.8236 5.72705 16.6104 5.72705Z" fill="#E37B7B"/>
<path d="M14.2557 0H12.8081C12.3335 0 11.9453 0.388296 11.9453 0.862849V1.43351L1.69508 3.68326C0.679516 3.90615 0 4.50479 0 5.17661V8.54761C0 9.22143 0.683444 9.82136 1.70326 10.0427L11.9453 12.2662V12.9926C11.9453 13.4672 12.3335 13.8555 12.8081 13.8555H14.2557C14.7303 13.8555 15.1186 13.4672 15.1186 12.9926V0.862849C15.1186 0.388296 14.7303 0 14.2557 0Z" fill="#E7918E"/>
<path d="M7.17739 2.46338L2.88672 3.43654V10.3148L7.19214 11.2364L7.17739 2.46338Z" fill="#E37B7B"/>
</svg>
