<svg width="16" height="19" viewBox="0 0 16 19" fill="none" xmlns="http://www.w3.org/2000/svg">
<path d="M9.88281 3.20301V0H1.98883C0.890399 0 0 0.783371 0 1.7497V16.6622C0 17.6285 0.890399 18.4119 1.98883 18.4119H13.2091C14.3075 18.4119 15.1979 17.6285 15.1979 16.6622V4.67171H11.5523C10.6302 4.67171 9.88281 4.01414 9.88281 3.20301Z" fill="white"/>
<path d="M15.1982 4.67139L15.1991 4.67207V4.67139H15.1982Z" fill="white"/>
<path d="M15.1977 4.67149L9.88281 0V3.20301C9.88281 4.01414 10.6302 4.67171 11.5523 4.67171H15.1979L15.1977 4.67149Z" fill="#D7DADF"/>
<path d="M13.7873 8.17578H1.51969C1.42144 8.17578 1.3418 8.25543 1.3418 8.35368V8.3632C1.3418 8.46145 1.42144 8.5411 1.51969 8.5411H13.7873C13.8856 8.5411 13.9652 8.46145 13.9652 8.3632V8.35368C13.9652 8.25543 13.8856 8.17578 13.7873 8.17578Z" fill="#D7DADF"/>
<path d="M13.7873 10.0752H1.51969C1.42144 10.0752 1.3418 10.1548 1.3418 10.2531V10.2626C1.3418 10.3609 1.42144 10.4405 1.51969 10.4405H13.7873C13.8856 10.4405 13.9652 10.3609 13.9652 10.2626V10.2531C13.9652 10.1548 13.8856 10.0752 13.7873 10.0752Z" fill="#D7DADF"/>
<path d="M13.7873 11.9741H1.51969C1.42144 11.9741 1.3418 12.0538 1.3418 12.152V12.1615C1.3418 12.2598 1.42144 12.3394 1.51969 12.3394H13.7873C13.8856 12.3394 13.9652 12.2598 13.9652 12.1615V12.152C13.9652 12.0538 13.8856 11.9741 13.7873 11.9741Z" fill="#D7DADF"/>
<path d="M13.7873 13.874H1.51969C1.42144 13.874 1.3418 13.9537 1.3418 14.0519V14.0614C1.3418 14.1597 1.42144 14.2393 1.51969 14.2393H13.7873C13.8856 14.2393 13.9652 14.1597 13.9652 14.0614V14.0519C13.9652 13.9537 13.8856 13.874 13.7873 13.874Z" fill="#D7DADF"/>
<path d="M13.7873 15.7744H1.51969C1.42144 15.7744 1.3418 15.8541 1.3418 15.9523V15.9618C1.3418 16.0601 1.42144 16.1397 1.51969 16.1397H13.7873C13.8856 16.1397 13.9652 16.0601 13.9652 15.9618V15.9523C13.9652 15.8541 13.8856 15.7744 13.7873 15.7744Z" fill="#D7DADF"/>
</svg>
