<svg width="32" height="32" viewBox="0 0 24 24" fill="none" xmlns="http://www.w3.org/2000/svg">
<path d="M11.6619 19.4525L5.28753 15.3584C4.89646 15.1073 4.90609 14.5325 5.30555 14.2945L11.6799 10.4972C11.8771 10.3797 12.123 10.3797 12.3203 10.4972L18.6946 14.2945C19.0939 14.5323 19.1035 15.1073 18.7127 15.3584L12.3383 19.4525C12.1324 19.5848 11.8683 19.5848 11.6621 19.4525H11.6619Z" fill="#99C0F7"/>
<path d="M11.6619 16.7967L5.28753 12.7026C4.89646 12.4515 4.90609 11.8768 5.30555 11.6388L11.6799 7.84143C11.8771 7.72392 12.123 7.72392 12.3203 7.84143L18.6946 11.6388C19.0939 11.8765 19.1035 12.4515 18.7127 12.7026L12.3383 16.7967C12.1324 16.929 11.8683 16.929 11.6621 16.7967H11.6619Z" fill="#BDD8FC"/>
<path d="M11.6619 14.0434L5.28753 9.94931C4.89646 9.69823 4.90609 9.12348 5.30555 8.88548L11.6799 5.08814C11.8771 4.97062 12.123 4.97062 12.3203 5.08814L18.6946 8.88548C19.0939 9.12323 19.1035 9.69823 18.7127 9.94931L12.3383 14.0434C12.1324 14.1757 11.8683 14.1757 11.6621 14.0434H11.6619Z" fill="#DDEBFD"/>
</svg>
