<svg width="19" height="18" viewBox="0 0 19 18" fill="none" xmlns="http://www.w3.org/2000/svg">
<path d="M8.20553 9.20207C10.7466 9.20207 12.8066 7.14212 12.8066 4.60103C12.8066 2.05995 10.7466 0 8.20553 0C5.66445 0 3.60449 2.05995 3.60449 4.60103C3.60449 7.14212 5.66445 9.20207 8.20553 9.20207Z" fill="#BDD8FC"/>
<path d="M16.412 17.6517C16.4014 14.0184 14.0296 10.9412 10.7506 9.87256C9.97379 10.222 9.11303 10.4181 8.206 10.4181C7.29896 10.4181 6.4382 10.222 5.66143 9.87256C4.66772 10.1964 3.75932 10.7071 2.97269 11.3595C1.17038 12.8541 0.017012 15.1029 0.00120004 17.6237C0.00115865 17.6331 0 17.6423 0 17.6517H16.4121L16.412 17.6517Z" fill="#BDD8FC"/>
<path d="M17.5938 7.88089H16.4512V6.73838C16.4512 6.31952 16.1117 5.97998 15.6928 5.97998H15.3663C14.9475 5.97998 14.6079 6.31952 14.6079 6.73838V7.88089H13.4654C13.0466 7.88089 12.707 8.22044 12.707 8.63929V8.96579C12.707 9.38464 13.0466 9.72419 13.4654 9.72419H14.6079V10.8667C14.6079 11.2856 14.9475 11.6251 15.3663 11.6251H15.6928C16.1117 11.6251 16.4512 11.2856 16.4512 10.8667V9.72419H17.5938C18.0126 9.72419 18.3521 9.38464 18.3521 8.96579V8.63929C18.3521 8.22044 18.0126 7.88089 17.5938 7.88089Z" fill="#85B5F7"/>
</svg>
