<svg width="22" height="14" viewBox="0 0 22 14" fill="none" xmlns="http://www.w3.org/2000/svg">
<path d="M5.40692 7.69422C7.08141 7.69422 8.43885 6.33678 8.43885 4.6623C8.43885 2.98781 7.08141 1.63037 5.40692 1.63037C3.73244 1.63037 2.375 2.98781 2.375 4.6623C2.375 6.33678 3.73244 7.69422 5.40692 7.69422Z" fill="#85B5F7"/>
<path d="M15.4322 6.90157C17.338 6.90157 18.883 5.3566 18.883 3.45079C18.883 1.54497 17.338 0 15.4322 0C13.5264 0 11.9814 1.54497 11.9814 3.45079C11.9814 5.3566 13.5264 6.90157 15.4322 6.90157Z" fill="#BDD8FC"/>
<path d="M9.54922 9.77962C8.90386 9.00136 8.06735 8.45661 7.08423 8.13623C6.57234 8.36652 6.00515 8.49571 5.40747 8.49571C4.80979 8.49571 4.24259 8.36652 3.73071 8.13623C1.56992 8.84039 0.00699911 10.8682 0 13.2624H8.48649C8.46436 12.0307 8.74482 10.872 9.54931 9.77967L9.54922 9.77962Z" fill="#85B5F7"/>
<path d="M21.5854 13.2386C21.5774 10.5137 19.7986 8.20572 17.3393 7.4043C16.7567 7.66642 16.1111 7.81345 15.4308 7.81345C14.7506 7.81345 14.105 7.66638 13.5224 7.4043C12.7771 7.64719 12.0958 8.0302 11.5059 8.51946C10.1541 9.64049 9.28915 11.327 9.27727 13.2177C9.27723 13.2247 9.27637 13.2316 9.27637 13.2386H21.5854Z" fill="#BDD8FC"/>
</svg>
