<svg width="17" height="18" viewBox="0 0 17 18" fill="none" xmlns="http://www.w3.org/2000/svg">
<path d="M8.02916 9.00363C10.5154 9.00363 12.531 6.9881 12.531 4.50181C12.531 2.01553 10.5154 0 8.02916 0C5.54288 0 3.52734 2.01553 3.52734 4.50181C3.52734 6.9881 5.54288 9.00363 8.02916 9.00363Z" fill="#9BA5B3"/>
<path d="M16.0581 17.2715C16.0477 13.7166 13.7271 10.7057 10.5187 9.66016C9.75867 10.0021 8.9165 10.194 8.02904 10.194C7.14159 10.194 6.29941 10.0021 5.53936 9.66016C4.56705 9.97702 3.67827 10.4767 2.90862 11.115C1.14517 12.5774 0.0167229 14.7777 0.00120067 17.2441C0.00115928 17.2533 4.13926e-05 17.2623 0 17.2715H16.0581Z" fill="#9BA5B3"/>
</svg>
