<svg width="14" height="18" viewBox="0 0 14 18" fill="none" xmlns="http://www.w3.org/2000/svg">
<path d="M12.4619 12.5455V5.54695C12.4619 2.48346 9.97849 0 6.915 0C3.85151 0 1.36806 2.48346 1.36806 5.54695V12.5455C0.614731 12.5508 0 13.1685 0 13.923V14.6023C0 15.3568 0.614731 15.9746 1.36806 15.9799V15.9912H12.4619V15.9799C13.2153 15.9746 13.83 15.3568 13.83 14.6023V13.923C13.83 13.1685 13.2153 12.5508 12.4619 12.5455Z" fill="#FBEAA6"/>
<path d="M8.69564 15.9985C8.69564 16.9819 7.89852 17.779 6.9152 17.779C5.93188 17.779 5.13477 16.9819 5.13477 15.9985H8.69564Z" fill="#F9DE83"/>
</svg>
